<?xml version="1.0" encoding="UTF-8"?>
<svg version="1.1" xmlns="http://www.w3.org/2000/svg" width="1024" height="1024">
<path d="M0 0 C337.92 0 675.84 0 1024 0 C1024 337.92 1024 675.84 1024 1024 C686.08 1024 348.16 1024 0 1024 C0 686.08 0 348.16 0 0 Z " fill="#FEFEFE" transform="translate(0,0)"/>
<path d="M0 0 C58.41 0 116.82 0 177 0 C196.48166432 50.42313117 196.48166432 50.42313117 203.4375 69.125 C207.84504923 80.95692111 212.28303816 92.77480547 216.828125 104.5546875 C220.44072424 113.91797992 224.0139364 123.29533008 227.55078125 132.6875 C227.78613523 133.31241207 228.02148922 133.93732414 228.26397514 134.58117294 C229.94806763 139.05364498 231.63046299 143.5267546 233.3125 148 C235.22414404 153.08375392 237.1365646 158.16721413 239.05078125 163.25 C239.2905859 163.88679499 239.53039055 164.52358997 239.77746201 165.17968178 C243.6304352 175.40699923 247.52397873 185.61843587 251.43359375 195.82421875 C257.3844825 211.35943443 263.26671334 226.91986786 269.1239624 242.49060059 C270.79768545 246.93984832 272.47317711 251.38842892 274.14892578 255.83691406 C278.79458663 268.17014178 283.43845395 280.50403779 288.07519531 292.84062195 C289.6484252 297.02504713 291.22365681 301.20871659 292.79943848 305.3921814 C293.5070583 307.27236124 294.21370972 309.15290589 294.91931152 311.03384399 C295.87868992 313.59118667 296.84130705 316.14728779 297.8046875 318.703125 C298.2076152 319.78115639 298.2076152 319.78115639 298.61868286 320.88096619 C300.55706465 326.00862558 302.73093262 331.01043061 305 336 C307.58352251 329.77091178 310.16681602 323.54172862 312.75 317.3125 C313.1381488 316.37652985 313.52629761 315.44055969 313.9262085 314.47622681 C318.19671113 304.17815997 322.4653416 293.8793368 326.72412109 283.57641602 C335.64219195 262.00239344 344.61720786 240.45204655 353.640625 218.921875 C354.03195114 217.98808014 354.42327728 217.05428528 354.82646179 216.0921936 C358.07388086 208.34326051 358.07388086 208.34326051 359.5453186 204.83343506 C364.17907359 193.77857936 368.80743249 182.72273764 373.27685547 171.60009766 C374.90172301 167.57808712 376.61731223 163.61726778 378.4296875 159.67578125 C381.06957306 153.91485117 383.45228311 148.06744973 385.8125 142.1875 C390.29074999 131.12013134 394.85605713 120.09087565 399.47836304 109.08291626 C400.19958629 107.3646285 400.91966395 105.64585944 401.63858032 103.92660522 C402.65296737 101.50178581 403.67155898 99.07877711 404.69140625 96.65625 C404.99616882 95.9261824 405.3009314 95.19611481 405.6149292 94.44392395 C406.89343287 91.41941317 408.17228194 88.74157709 410 86 C412.97390747 85.63923645 412.97390747 85.63923645 416.83642578 85.65942383 C417.53897491 85.65898575 418.24152405 85.65854767 418.96536255 85.65809631 C421.29229326 85.66018979 423.61850736 85.68354605 425.9453125 85.70703125 C427.55670783 85.71262524 429.16810825 85.71689627 430.7795105 85.71989441 C435.0244145 85.73135874 439.26901142 85.76083932 443.51379395 85.79400635 C447.84378912 85.82467318 452.17383382 85.83839248 456.50390625 85.85351562 C465.00274521 85.88570773 473.50133443 85.93692296 482 86 C485.40390931 93.29567173 488.75380765 100.59554388 491.8125 108.04296875 C492.14333588 108.84228317 492.47417175 109.6415976 492.81503296 110.46513367 C493.87926502 113.03820014 494.93971229 115.61280599 496 118.1875 C496.75060434 120.00480658 497.50142144 121.8220253 498.25244141 123.63916016 C500.14596849 128.22260999 502.03623339 132.80739681 503.92541504 137.39263916 C505.25469515 140.61798945 506.58583499 143.84257004 507.91708374 147.06710815 C513.87315119 161.49527553 519.79835531 175.93561816 525.67944336 190.39453125 C529.74872348 200.39489217 533.84017001 210.3861032 537.9375 220.375 C538.28229401 221.21563995 538.62708801 222.05627991 538.98233032 222.9223938 C543.32124851 233.49878476 547.68019449 244.06650646 552.0625 254.625 C556.6000378 265.56003985 561.06047696 276.5248984 565.5 287.5 C569.99978218 298.62090053 574.5086113 309.7378047 579.08276367 320.82836914 C579.6075536 322.10128796 580.13149079 323.3745587 580.65454102 324.64819336 C581.36870899 326.38630284 582.08659022 328.12288522 582.8046875 329.859375 C583.20671387 330.83358398 583.60874023 331.80779297 584.02294922 332.81152344 C584.81363749 334.93277572 584.81363749 334.93277572 586 336 C586.54974487 334.54654175 586.54974487 334.54654175 587.1105957 333.0637207 C601.54043812 294.91437672 601.54043812 294.91437672 608.5333252 276.5014801 C610.47218565 271.39453449 612.40593892 266.2856643 614.33914185 261.17657471 C616.41173393 255.70034423 618.48656271 250.22496317 620.5625 244.75 C620.97828308 243.6533905 621.39406616 242.55678101 621.82244873 241.42694092 C626.72124881 228.51592584 631.6191907 215.60854624 636.88305664 202.84082031 C639.33824912 196.84595497 641.51184866 190.77487206 643.64871216 184.66146851 C646.36459911 176.91158534 649.26583633 169.23667127 652.1875 161.5625 C652.78166657 159.99721713 653.37565467 158.43186651 653.96948242 156.86645508 C655.61386526 152.5333852 657.26085714 148.20131163 658.90856934 143.86950684 C661.29752646 137.5886417 663.68501723 131.3072188 666.07252502 125.02580261 C668.10161192 119.68746767 670.13132643 114.34937418 672.1628418 109.01196289 C675.95517752 99.04410192 679.73008848 89.07015863 683.46875 79.08203125 C688.1642343 66.5378678 692.92230314 54.01781659 697.6875 41.5 C699.31686884 37.21892585 700.94566105 32.93763277 702.57421875 28.65625 C702.95939667 27.6446582 703.34457458 26.63306641 703.74142456 25.59082031 C705.46956386 21.04772323 707.19006791 16.50227416 708.88134766 11.9453125 C709.16162308 11.19100952 709.4418985 10.43670654 709.73066711 9.6595459 C710.24066634 8.28360647 710.74830746 6.90678969 711.25309753 5.52893066 C712.89041452 1.10958548 712.89041452 1.10958548 714 0 C716.27823745 -0.09709071 718.55955423 -0.12186604 720.83985901 -0.12025452 C721.9253238 -0.12153615 721.9253238 -0.12153615 723.03271717 -0.12284368 C725.47569346 -0.12450062 727.91860222 -0.11897365 730.36157227 -0.11352539 C732.10553994 -0.11324354 733.84950774 -0.11340121 735.59347534 -0.1139679 C740.34327495 -0.11425595 745.09304953 -0.10835797 749.84284329 -0.10139394 C754.80098422 -0.09516169 759.75912566 -0.0945567 764.7172699 -0.09336853 C774.11309828 -0.09025483 783.50891509 -0.08204093 792.90473837 -0.07201904 C803.59863149 -0.06085909 814.29252516 -0.05534775 824.98642266 -0.05032361 C846.99095491 -0.03985834 868.99547673 -0.02225816 891 0 C889.87570063 3.40268443 888.74808464 6.75417937 887.3269043 10.04467773 C887.00814835 10.78621597 886.6893924 11.52775421 886.36097717 12.29176331 C885.84778175 13.47571938 885.84778175 13.47571938 885.32421875 14.68359375 C884.96279282 15.52321152 884.60136688 16.36282928 884.22898865 17.22789001 C883.4535591 19.02896204 882.67710442 20.82959299 881.89971924 22.62982178 C879.84556443 27.38754673 877.79956129 32.14877176 875.75390625 36.91015625 C875.34493103 37.86180664 874.93595581 38.81345703 874.5145874 39.79394531 C871.00532741 47.96855205 867.55158015 56.16545727 864.125 64.375 C857.85144731 79.39335851 851.4423858 94.35216897 845.00915527 109.30267334 C842.39954933 115.36742438 839.79218111 121.43313212 837.1875 127.5 C836.61059418 128.84362106 836.61059418 128.84362106 836.02203369 130.21438599 C830.34765952 143.43830634 824.76855834 156.69886618 819.25817871 169.99185181 C814.55916296 181.32264321 809.74532128 192.59735827 804.84472656 203.84228516 C800.82126286 213.08048303 796.86453346 222.34542503 792.9375 231.625 C791.75795859 234.4115202 790.57829957 237.19799055 789.3984375 239.984375 C789.11084564 240.66356491 788.82325378 241.34275482 788.52694702 242.04252625 C783.99599945 252.73685848 779.40711841 263.40645266 774.8248291 274.07885742 C772.02773808 280.59367442 769.23185812 287.10901032 766.4375 293.625 C765.95592941 294.74790436 765.95592941 294.74790436 765.46463013 295.89349365 C761.4520391 305.25211702 757.45883963 314.61847937 753.5 324 C747.36850386 338.52920427 741.14570411 353.01903246 734.92626953 367.51074219 C732.15005512 373.98001534 729.37753767 380.45087251 726.6048584 386.92166138 C725.05314359 390.54289708 723.50116626 394.16402027 721.94921875 397.78515625 C721.30517454 399.28792265 720.66113159 400.79068958 720.01708984 402.29345703 C719.52520172 403.44119598 719.52520172 403.44119598 719.02337646 404.61212158 C718.68566223 405.40012146 718.347948 406.18812134 718 407 C715.38424683 413.10342407 712.76849365 419.20684814 710.15274048 425.31027222 C709.77233612 426.19788239 709.39193176 427.08549255 709 428 C708.23071289 429.79500326 707.46142578 431.59000651 706.69213867 433.38500977 C706.12459114 434.70928734 706.12459114 434.70928734 705.545578 436.06031799 C704.415802 438.696462 703.286026 441.332606 702.15625 443.96875 C701.61387695 445.23428711 701.61387695 445.23428711 701.06054688 446.52539062 C700.71056641 447.34201172 700.36058594 448.15863281 700 449 C699.66935547 449.77150391 699.33871094 450.54300781 698.99804688 451.33789062 C698.67900391 452.08232422 698.35996094 452.82675781 698.03125 453.59375 C697.71923645 454.32178329 697.4072229 455.04981659 697.08575439 455.7999115 C696.46788008 457.24161486 695.85000087 458.68331612 695.2321167 460.12501526 C693.71875686 463.65612944 692.20548118 467.18727963 690.69238281 470.71850586 C687.67115689 477.76909405 684.64881981 484.81920261 681.62419128 491.86833191 C671.4203485 515.63245916 671.4203485 515.63245916 661.3125 539.4375 C657.2923042 548.96301951 653.24802342 558.47806317 649.18270874 567.98440552 C648.53184506 569.50697268 647.88161148 571.0298094 647.23208618 572.552948 C646.31675677 574.69886663 645.39890529 576.8436909 644.48046875 578.98828125 C644.21829559 579.60412079 643.95612244 580.21996033 643.68600464 580.85446167 C640.91846033 587.30175057 637.94428325 593.62071963 635 600 C606.62 600 578.24 600 549 600 C541.08 582.18 541.08 582.18 533 564 C529.72925047 556.73121049 529.72925047 556.73121049 526.453125 549.46484375 C523.02357993 541.84346739 519.64120491 534.20098805 516.25 526.5625 C510.83559934 514.36690798 505.39911213 502.18176391 499.93237305 490.00952148 C495.27228694 479.62559514 490.65456482 469.22308759 486.03964233 458.81903076 C481.6267704 448.87302634 477.17601129 438.94541163 472.67990112 429.03677368 C465.01235382 412.13730843 457.5638751 395.14451774 450.328125 378.05517578 C449.91639038 377.08578819 449.91639038 377.08578819 449.49633789 376.09681702 C448.72880412 374.28870798 447.96393532 372.47946835 447.19921875 370.67016602 C446.24839591 368.1299491 446.24839591 368.1299491 445 367 C438.01312069 382.54980104 431.04925939 398.10970651 424.125 413.6875 C423.62277924 414.81730789 423.62277924 414.81730789 423.1104126 415.96994019 C419.44104497 424.22695045 415.78090803 432.48793516 412.140625 440.7578125 C411.82754395 441.4690477 411.51446289 442.1802829 411.19189453 442.91307068 C410.56437109 444.33872448 409.9368483 445.76437858 409.30932617 447.19003296 C402.46905602 462.72876919 395.51514775 478.21361447 388.50585938 493.67675781 C381.22518263 509.74429541 374.05206834 525.85905971 366.89562988 541.98223877 C364.21218811 548.02775475 361.52796465 554.07292307 358.84280396 560.11767578 C357.85175727 562.34910863 356.86128747 564.58079687 355.87084961 566.8125 C350.94966363 577.89160322 345.974981 588.94448667 341 600 C312.62 600 284.24 600 255 600 C246.24483542 579.59426209 237.49075587 559.18854834 228.8125 538.75 C228.11995498 537.11914039 227.4274094 535.48828102 226.73486328 533.85742188 C226.3833017 533.02952148 226.03174011 532.20162109 225.66952515 531.34863281 C225.31194122 530.50655273 224.9543573 529.66447266 224.5859375 528.796875 C224.22343903 527.94319336 223.86094055 527.08951172 223.48745728 526.20996094 C207.60805984 488.81850015 191.64496477 451.463195 175.62939453 414.12988281 C172.36376291 406.51730608 169.10079224 398.90359 165.83828735 391.28967285 C164.37411945 387.87273543 162.9097062 384.45590316 161.4453125 381.0390625 C160.87792846 379.7151698 160.31054565 378.39127657 159.74316406 377.06738281 C159.45928833 376.4050061 159.1754126 375.74262939 158.88293457 375.06018066 C156.11621093 368.60449218 156.11621093 368.60449218 155.1512146 366.35282898 C154.50459272 364.84404798 153.85796595 363.33526909 153.21133423 361.82649231 C151.60773383 358.08481705 150.00421601 354.34310645 148.40087891 350.60131836 C145.63367894 344.14357566 142.86582134 337.68612239 140.09375 331.23046875 C133.45453802 315.76385758 126.86154155 300.27788836 120.27679443 284.7880249 C113.25631153 268.27516977 106.19297324 251.78103 99.11434937 235.29302979 C92.41717466 219.68890169 85.79092828 204.05609903 79.20401001 188.40515137 C72.86013593 173.33743486 66.40797764 158.31878096 59.90866089 143.3175354 C54.49667323 130.82319352 49.15843308 118.30308371 43.92041016 105.73486328 C39.35455042 94.79125733 34.68123825 83.8946707 30 73 C23.03500064 56.78769437 16.15954491 40.54112302 9.36474609 24.25683594 C8.06220287 21.14844121 6.74723601 18.04570811 5.42578125 14.9453125 C5.04244629 14.04417725 4.65911133 13.14304199 4.26416016 12.21459961 C3.57275808 10.59176448 2.87865226 8.97007712 2.18115234 7.34985352 C0 2.22192718 0 2.22192718 0 0 Z " fill="#010101" transform="translate(67,205)"/>
</svg>
